# xmcd
#
# Track frame offsets:
#	150
#	18373
#	38955
#	60679
#	80416
#	100518
#	119182
#	134122
#	163324
#	192554
#	220315
#	238139
#	244181
#	255941
#	278366
#	292200
#
# Disc length: 4376 seconds
#
# Revision: 1
# Processed by: cddbd v1.5.1PL0 Copyright (c) Steve Scherf et al.
# Submitted via: EasyCDDAExtractor 8.0.2.1
#
DISCID=f6111610
DTITLE=Judas Priest - Great Woods Mansfield 14-08-91
DYEAR=1991
DGENRE=Metal
TTITLE0=Hell Bent For Leather
TTITLE1=Heading Out To The Highway
TTITLE2=The Hellion - Electric Eye
TTITLE3=All Guns Blazing
TTITLE4=Metal Gods
TTITLE5=Some Heads Are Gonna Roll
TTITLE6=The Ripper
TTITLE7=Nightcrawler
TTITLE8=Touch Of Evil
TTITLE9=Painkiller
TTITLE10=Green Manalishi
TTITLE11=Crowd
TTITLE12=Breaking The Law
TTITLE13=Living After Midnight
TTITLE14=Crowd
TTITLE15=You've Got Another Thing Comin'
EXTD=
EXTT0=
EXTT1=
EXTT2=
EXTT3=
EXTT4=
EXTT5=
EXTT6=
EXTT7=
EXTT8=
EXTT9=
EXTT10=
EXTT11=
EXTT12=
EXTT13=
EXTT14=
EXTT15=
PLAYORDER=
